<?xml version="1.0" standalone="no"?>
<!DOCTYPE svg PUBLIC "-//W3C//DTD SVG 20010904//EN"
 "http://www.w3.org/TR/2001/REC-SVG-20010904/DTD/svg10.dtd">
<svg version="1.0" xmlns="http://www.w3.org/2000/svg"
 width="310.000000pt" height="310.000000pt" viewBox="0 0 310.000000 310.000000"
 preserveAspectRatio="xMidYMid meet">
<metadata>
Created by potrace 1.14, written by Peter Selinger 2001-2017
</metadata>
<g transform="translate(0.000000,310.000000) scale(0.100000,-0.100000)"
fill="#000000" stroke="none">
<path d="M315 2766 c-17 -7 -36 -21 -44 -30 -18 -22 -20 -96 -2 -128 28 -53
27 -53 591 -58 l525 -5 3 -135 c2 -118 0 -136 -15 -147 -13 -10 -113 -13 -427
-13 -252 0 -425 -4 -448 -10 -51 -15 -97 -56 -120 -107 -18 -40 -19 -81 -18
-847 0 -443 4 -816 9 -828 33 -87 178 -86 208 2 9 26 12 228 13 760 1 399 5
736 9 749 3 13 19 34 34 45 28 20 39 21 390 21 l362 0 5 -778 5 -779 33 -29
c50 -45 132 -33 164 24 10 17 14 192 18 792 l5 770 365 3 c331 2 368 0 400
-15 24 -12 39 -29 47 -53 16 -46 18 -1187 3 -1242 -16 -56 -51 -78 -124 -78
-33 0 -90 -5 -126 -10 -85 -12 -120 -46 -120 -118 0 -27 7 -57 16 -70 31 -45
63 -52 223 -52 126 0 159 3 204 20 61 23 109 65 140 124 22 41 22 44 25 771 2
527 0 745 -8 783 -14 65 -65 121 -126 140 -30 9 -160 12 -467 12 -234 0 -432
3 -441 6 -14 5 -16 28 -16 150 l0 144 521 0 c372 0 533 3 561 12 53 16 78 49
78 105 0 53 -21 88 -62 102 -49 17 -2353 14 -2393 -3z"/>
<path d="M787 1810 c-31 -25 -41 -61 -25 -98 21 -47 298 -308 336 -317 86 -19
154 60 118 137 -29 61 -177 202 -280 267 -59 37 -111 41 -149 11z"/>
<path d="M1822 1820 c-13 -6 -30 -26 -38 -46 -25 -60 -7 -87 159 -239 165
-149 188 -161 254 -129 29 15 40 27 47 55 5 20 6 48 2 62 -8 33 -91 124 -182
198 -125 102 -179 124 -242 99z"/>
<path d="M1825 1240 c-43 -17 -61 -67 -41 -114 21 -49 285 -302 324 -310 103
-23 168 70 112 162 -41 67 -237 236 -303 261 -33 13 -64 13 -92 1z"/>
<path d="M814 1230 c-61 -24 -70 -97 -21 -158 40 -50 187 -188 246 -230 60
-43 129 -45 160 -5 12 14 24 36 27 48 13 53 -55 144 -191 255 -113 92 -164
113 -221 90z"/>
</g>
</svg>
